<?xml version="1.0" encoding="UTF-8" standalone="no"?>
<!DOCTYPE svg PUBLIC "-//W3C//DTD SVG 1.1//EN" "http://www.w3.org/Graphics/SVG/1.1/DTD/svg11.dtd">
<svg width="100%" height="100%" viewBox="0 0 512 512" version="1.1" xmlns="http://www.w3.org/2000/svg" xmlns:xlink="http://www.w3.org/1999/xlink" xml:space="preserve" xmlns:serif="http://www.serif.com/" style="fill-rule:evenodd;clip-rule:evenodd;stroke-linejoin:round;stroke-miterlimit:2;">
    <rect id="Artboard1" x="0" y="0" width="511.993" height="512" style="fill:none;"/>
    <g id="Artboard11" serif:id="Artboard1">
        <g>
            <path d="M496,256L496,16L256,16L256,96C344.364,96.002 415.996,167.636 415.996,256L496,256Z" style="fill:#5158e1;"/>
            <path d="M256,16L16,16L16,256L95.996,256C95.996,167.634 167.631,96 255.996,96C255.998,96 255.999,96 256,96L256,16Z" style="fill:#b1b4ee;"/>
            <path d="M16,256L16,496L256,496L256,416C255.999,416 255.998,416 255.996,416C167.631,416 95.996,344.365 95.996,256L16,256Z" style="fill:#5158e1;"/>
            <path d="M256,496L496,496L496,256L415.996,256C415.996,344.364 344.364,415.998 256,416L256,496Z" style="fill:#170c3f;"/>
            <path d="M95.996,256C95.996,167.634 167.631,96 255.996,96C255.998,96 255.999,96 256,96L256,256L95.996,256Z" style="fill:#5158e1;"/>
            <path d="M256,416C255.999,416 255.998,416 255.996,416C167.631,416 95.996,344.365 95.996,256L256,256L256,416Z" style="fill:#170c3f;"/>
            <path d="M415.996,256C415.996,344.364 344.364,415.998 256,416L256,256L415.996,256Z" style="fill:#5158e1;"/>
            <path d="M256,96C344.364,96.002 415.996,167.636 415.996,256L256,256L256,96Z" style="fill:#b1b4ee;"/>
        </g>
    </g>
</svg>
