<?xml version="1.0" encoding="UTF-8" standalone="no"?>
<!DOCTYPE svg PUBLIC "-//W3C//DTD SVG 1.1//EN" "http://www.w3.org/Graphics/SVG/1.1/DTD/svg11.dtd">
<svg width="100%" height="100%" viewBox="0 0 512 512" version="1.1" xmlns="http://www.w3.org/2000/svg" xmlns:xlink="http://www.w3.org/1999/xlink" xml:space="preserve" xmlns:serif="http://www.serif.com/" style="fill-rule:evenodd;clip-rule:evenodd;stroke-linejoin:round;stroke-miterlimit:2;">
    <rect id="Artboard1" x="0" y="0" width="511.993" height="512" style="fill:none;"/>
    <clipPath id="_clip1">
        <rect id="Artboard11" serif:id="Artboard1" x="0" y="0" width="511.993" height="512"/>
    </clipPath>
    <g clip-path="url(#_clip1)">
        <g>
            <path d="M511.993,255.996C511.993,397.285 397.285,511.993 255.996,511.993L255.996,288C273.658,288 287.996,273.661 287.996,256C287.996,255.999 287.996,255.998 287.996,255.996L511.993,255.996Z" style="fill:#5158e1;"/>
            <path d="M255.996,-0C397.285,-0 511.993,114.708 511.993,255.996L287.996,255.996C287.995,238.337 273.657,224 255.996,224L255.996,-0Z" style="fill:#b0b4ee;"/>
            <path d="M0,255.996C0,114.708 114.708,-0 255.996,-0L255.996,224C238.336,224 223.998,238.337 223.996,255.996L0,255.996Z" style="fill:#5158e1;"/>
            <path d="M255.996,511.993C114.708,511.993 0,397.285 0,255.996L223.996,255.996C223.996,255.998 223.996,255.999 223.996,256C223.996,273.661 238.335,288 255.996,288L255.996,511.993Z" style="fill:#170c3f;"/>
            <path d="M223.996,255.996C223.998,238.337 238.336,224 255.996,224L255.996,255.996L223.996,255.996Z" style="fill:#170c3f;"/>
            <path d="M255.996,224C273.657,224 287.995,238.337 287.996,255.996L255.996,255.996L255.996,224Z" style="fill:#5158e1;"/>
            <path d="M287.996,255.996C287.996,255.998 287.996,255.999 287.996,256C287.996,273.661 273.658,288 255.996,288L255.996,255.996L287.996,255.996Z" style="fill:#170c3f;"/>
            <path d="M255.996,288C238.335,288 223.996,273.661 223.996,256C223.996,255.999 223.996,255.998 223.996,255.996L255.996,255.996L255.996,288Z" style="fill:#b0b4ee;"/>
        </g>
    </g>
</svg>
