<?xml version="1.0" encoding="UTF-8" standalone="no"?>
<!DOCTYPE svg PUBLIC "-//W3C//DTD SVG 1.1//EN" "http://www.w3.org/Graphics/SVG/1.1/DTD/svg11.dtd">
<svg width="100%" height="100%" viewBox="0 0 512 512" version="1.1" xmlns="http://www.w3.org/2000/svg" xmlns:xlink="http://www.w3.org/1999/xlink" xml:space="preserve" xmlns:serif="http://www.serif.com/" style="fill-rule:evenodd;clip-rule:evenodd;stroke-linejoin:round;stroke-miterlimit:2;">
    <rect id="Artboard1" x="0" y="0" width="511.993" height="512" style="fill:none;"/>
    <clipPath id="_clip1">
        <rect id="Artboard11" serif:id="Artboard1" x="0" y="0" width="511.993" height="512"/>
    </clipPath>
    <g clip-path="url(#_clip1)">
        <g>
            <path d="M319.996,255.996L511.993,255.996C511.993,397.285 397.285,511.993 255.996,511.993L255.996,320C291.319,320 319.996,291.323 319.996,256L319.996,255.996Z" style="fill:#5158e1;"/>
            <path d="M255.996,192L255.996,-0C397.285,-0 511.993,114.708 511.993,255.996L319.996,255.993C319.993,220.674 291.317,192 255.996,192Z" style="fill:#b0b4ee;"/>
            <path d="M191.996,255.993L0,255.996C0,114.708 114.708,-0 255.996,-0L255.996,192C220.676,192 192,220.674 191.996,255.993Z" style="fill:#5158e1;"/>
            <path d="M255.996,320L255.996,511.993C114.708,511.993 0,397.285 0,255.996L191.996,255.996L191.996,256C191.996,291.323 220.674,320 255.996,320Z" style="fill:#170c3f;"/>
            <path d="M319.996,255.993C319.996,255.995 319.996,255.998 319.996,256C319.996,291.323 291.319,320 255.996,320L255.996,255.993L319.996,255.993Z" style="fill:#170c3f;"/>
            <path d="M191.996,255.993C192,220.674 220.676,192 255.996,192L255.996,255.993L191.996,255.993Z" style="fill:#170c3f;"/>
            <path d="M255.996,192C291.317,192 319.993,220.674 319.996,255.993L255.996,255.993L255.996,192Z" style="fill:#5158e1;"/>
            <path d="M255.996,320C220.674,320 191.996,291.323 191.996,256C191.996,255.998 191.996,255.995 191.996,255.993L255.996,255.993L255.996,320Z" style="fill:#b0b4ee;"/>
        </g>
    </g>
</svg>
