<?xml version="1.0" encoding="UTF-8" standalone="no"?>
<!DOCTYPE svg PUBLIC "-//W3C//DTD SVG 1.1//EN" "http://www.w3.org/Graphics/SVG/1.1/DTD/svg11.dtd">
<svg width="100%" height="100%" viewBox="0 0 512 512" version="1.1" xmlns="http://www.w3.org/2000/svg" xmlns:xlink="http://www.w3.org/1999/xlink" xml:space="preserve" xmlns:serif="http://www.serif.com/" style="fill-rule:evenodd;clip-rule:evenodd;stroke-linejoin:round;stroke-miterlimit:2;">
    <rect id="Artboard1" x="0" y="0" width="511.993" height="512" style="fill:none;"/>
    <g id="Artboard11" serif:id="Artboard1">
        <path d="M255.996,0C397.285,0 511.993,114.708 511.993,255.996C511.993,397.285 397.285,511.993 255.996,511.993C114.708,511.993 0,397.285 0,255.996C0,114.708 114.708,0 255.996,0ZM83.714,100.686C46.604,141.82 24,196.289 24,255.996C24,384.039 127.954,487.993 255.996,487.993C315.702,487.993 370.17,465.39 411.304,428.281L83.714,100.686ZM428.275,411.311C465.387,370.177 487.993,315.706 487.993,255.996C487.993,127.954 384.039,24 255.996,24C196.289,24 141.819,46.605 100.685,83.716L428.275,411.311Z"/>
    </g>
</svg>
